<svg xmlns="http://www.w3.org/2000/svg" xmlns:xlink="http://www.w3.org/1999/xlink" x="0" y="0" width="189.355" height="81.606" viewBox="0, 0, 189.355, 81.606"><g id="Layer_1" transform="translate(-17.394, -273.5)"><g><g id="o360_logo-2020-inv"><g id="Group"><path d="M48.532,339.153 C46.789,338.674 45.14,338.023 43.598,337.225 L42.75,332.132 L48.232,329.976 C48.172,329.948 48.11,329.921 48.059,329.877 C48.92,330.305 49.838,330.65 50.801,330.912 C59.693,333.36 68.9,328.128 71.347,319.236 C73.795,310.344 68.561,301.136 59.671,298.69 C59.906,298.754 60.139,298.823 60.369,298.898 L64.413,296.094 L62.189,290.518 C75.481,294.321 83.267,308.145 79.588,321.504 C75.889,334.948 61.975,342.855 48.532,339.153 z M41.242,335.816 C41.334,335.897 41.487,335.999 41.645,336.095 C41.501,336.009 41.366,335.919 41.242,335.816 z M39.123,334.232 C39.248,334.366 39.492,334.564 39.747,334.747 C39.508,334.574 39.305,334.413 39.123,334.232 z M37.356,332.617 C37.471,332.765 37.722,333.012 37.99,333.242 C37.723,333.009 37.531,332.822 37.356,332.617 z M35.79,330.895 C35.893,331.052 36.127,331.325 36.381,331.582 C36.119,331.314 35.947,331.112 35.79,330.895 z M34.405,329.06 C34.499,329.224 34.696,329.506 34.919,329.772 C34.69,329.492 34.54,329.28 34.405,329.06 z M45.463,328.337 C45.461,328.36 45.637,328.488 45.829,328.597 C45.688,328.52 45.568,328.436 45.463,328.337 z M33.195,327.119 C33.277,327.284 33.426,327.542 33.599,327.787 C33.42,327.53 33.303,327.328 33.195,327.119 z M43.276,326.447 C43.274,326.471 43.387,326.586 43.507,326.694 C43.416,326.616 43.339,326.538 43.276,326.447 z M32.167,325.081 C32.205,325.173 32.263,325.302 32.335,325.422 C32.262,325.298 32.214,325.19 32.167,325.081 z M41.553,324.386 C41.554,324.393 41.559,324.402 41.566,324.409 C41.561,324.403 41.556,324.394 41.553,324.386 z M31.146,322.331 C31.175,322.495 31.251,322.724 31.334,322.954 C31.259,322.75 31.191,322.544 31.146,322.331 z M40.078,321.811 C40.076,321.829 40.142,321.969 40.225,322.101 C40.162,322.009 40.114,321.912 40.078,321.811 z M30.519,319.916 C30.536,320.11 30.607,320.433 30.695,320.751 C30.609,320.441 30.55,320.182 30.519,319.916 z M39.08,319.008 C39.067,319.026 39.122,319.232 39.2,319.433 C39.139,319.291 39.1,319.153 39.08,319.008 z M30.144,317.569 C30.143,317.768 30.188,318.127 30.256,318.481 C30.189,318.119 30.153,317.846 30.144,317.569 z M38.591,316.088 C38.571,316.103 38.589,316.316 38.628,316.529 C38.594,316.377 38.582,316.235 38.591,316.088 z M29.991,315.215 C29.976,315.417 29.987,315.785 30.026,316.151 C29.987,315.77 29.979,315.494 29.991,315.215 z M38.734,312.148 C38.625,312.959 38.631,312.89 38.567,313.566 C38.631,312.89 38.625,312.959 38.734,312.148 z M30.098,312.292 C30.049,312.831 30.045,312.874 29.988,313.881 C30.045,312.874 30.049,312.829 30.098,312.292 z M30.424,310.062 C30.237,311.162 30.232,311.207 30.248,311.251 C30.239,311.147 30.242,311.133 30.424,310.062 z" fill="#00B0FF"></path><path d="M30.883,308.098 C34.583,294.653 48.494,286.747 61.94,290.448 C62.022,290.471 62.106,290.495 62.189,290.519 L64.413,296.094 L60.369,298.898 C60.139,298.823 59.906,298.754 59.671,298.69 C50.778,296.241 41.571,301.475 39.124,310.365 C36.923,318.364 40.934,326.617 48.232,329.976 L42.75,332.132 L43.599,337.225 C33.233,331.857 27.66,319.8 30.883,308.098 z" fill="#E35D11"></path></g><path d="M105.636,324.212 C105.636,319.527 103.506,314.699 97.756,312.995 C101.873,311.007 104.003,307.244 104.003,302.984 C104.003,296.309 99.103,289.423 88.099,289.423 C77.52,289.423 71.413,296.735 71.413,305.327 L80.786,305.327 C80.786,301.635 83.058,298.085 88.099,298.085 C92.429,298.085 94.844,300.428 94.844,303.977 C94.844,307.244 92.927,309.658 87.035,309.658 L85.117,309.658 L85.117,317.823 L88.241,317.823 C93.708,317.823 96.264,320.023 96.264,324.07 C96.264,328.118 93.069,331.1 87.744,331.1 C82.56,331.1 79.436,328.118 79.366,323.148 L69.994,323.148 C70.207,332.378 76.029,339.762 87.815,339.762 C99.529,339.762 105.636,331.952 105.636,324.212 z" fill="#FFFFFF"></path><path d="M141.965,322.291 C141.965,312.942 134.625,304.771 124.098,305.393 L132.13,290.851 L121.674,290.851 L111.149,310.033 C108.795,314.188 107.063,318.274 107.063,322.291 C107.063,331.917 114.542,339.741 124.445,339.741 C134.416,339.741 141.965,331.917 141.965,322.291 z M132.823,322.291 C132.823,326.999 129.084,330.808 124.445,330.808 C119.874,330.808 116.135,326.999 116.135,322.291 C116.135,317.512 119.874,313.703 124.445,313.703 C129.084,313.703 132.823,317.512 132.823,322.291 z" fill="#FFFFFF"></path><path d="M166.234,289.674 C152.593,289.674 142.69,300.754 142.69,314.673 C142.69,328.661 152.593,339.741 166.234,339.741 C179.807,339.741 189.71,328.661 189.71,314.673 C189.71,300.754 179.807,289.674 166.234,289.674 z M166.234,331.084 C158.271,331.084 151.901,323.675 151.901,314.673 C151.901,305.741 158.271,298.33 166.234,298.33 C174.129,298.33 180.5,305.741 180.5,314.673 C180.5,323.675 174.129,331.084 166.234,331.084 z" fill="#FFFFFF"></path></g></g></g></svg>